<svg id="visual" viewBox="0 0 1300 700" width="1300" height="700" xmlns="http://www.w3.org/2000/svg" xmlns:xlink="http://www.w3.org/1999/xlink" version="1.1"><path d="M0 368L31 379.3C62 390.7 124 413.3 185.8 400.7C247.7 388 309.3 340 371.2 337.3C433 334.7 495 377.3 557 405.2C619 433 681 446 743 433.2C805 420.3 867 381.7 928.8 383.2C990.7 384.7 1052.3 426.3 1114.2 421C1176 415.7 1238 363.3 1269 337.2L1300 311L1300 0L1269 0C1238 0 1176 0 1114.2 0C1052.3 0 990.7 0 928.8 0C867 0 805 0 743 0C681 0 619 0 557 0C495 0 433 0 371.2 0C309.3 0 247.7 0 185.8 0C124 0 62 0 31 0L0 0Z" fill="#3939af" stroke-linecap="round" stroke-linejoin="miter"></path></svg>